<svg xmlns="http://www.w3.org/2000/svg" xmlns:xlink="http://www.w3.org/1999/xlink" width="1080" zoomAndPan="magnify" viewBox="0 0 810 1012.49997" height="1350" preserveAspectRatio="xMidYMid meet" version="1.0"><defs><g/><clipPath id="2dffec68fa"><path d="M 0.199219 0 L 809.800781 0 L 809.800781 1012 L 0.199219 1012 Z M 0.199219 0 " clip-rule="nonzero"/></clipPath><clipPath id="d3a5f2f17f"><path d="M 0.199219 0 L 809.800781 0 L 809.800781 932 L 0.199219 932 Z M 0.199219 0 " clip-rule="nonzero"/></clipPath><clipPath id="b79f04028c"><path d="M 0.199219 158 L 809.800781 158 L 809.800781 835 L 0.199219 835 Z M 0.199219 158 " clip-rule="nonzero"/></clipPath><clipPath id="bbb1c90c91"><rect x="0" width="810" y="0" height="932"/></clipPath><clipPath id="2858375cc4"><path d="M 0.199219 431 L 809.800781 431 L 809.800781 579 L 0.199219 579 Z M 0.199219 431 " clip-rule="nonzero"/></clipPath><clipPath id="4b2704753e"><path d="M 0.199219 4 L 809.800781 4 L 809.800781 147.355469 L 0.199219 147.355469 Z M 0.199219 4 " clip-rule="nonzero"/></clipPath><clipPath id="db825c4166"><rect x="0" width="810" y="0" height="148"/></clipPath></defs><g clip-path="url(#2dffec68fa)"><path fill="#ffffff" d="M 0.199219 0 L 809.800781 0 L 809.800781 1012 L 0.199219 1012 Z M 0.199219 0 " fill-opacity="1" fill-rule="nonzero"/><path fill="#74dab4" d="M 0.199219 0 L 809.800781 0 L 809.800781 1012 L 0.199219 1012 Z M 0.199219 0 " fill-opacity="1" fill-rule="nonzero"/></g><g clip-path="url(#d3a5f2f17f)"><g transform="matrix(1, 0, 0, 1, 0.000000000000000028, 0)"><g clip-path="url(#bbb1c90c91)"><g clip-path="url(#b79f04028c)"><g fill="#ffffff" fill-opacity="1"><g transform="translate(-6.143896, 834.915335)"><g><path d="M 702.859375 -552.296875 L 834.796875 -552.296875 L 624.1875 -5.078125 C 623.0625 -1.691406 620.382812 0 616.15625 0 C 611.925781 0 609.25 -1.691406 608.125 -5.078125 L 416.984375 -506.640625 L 225.828125 -5.078125 C 224.703125 -1.691406 222.023438 0 217.796875 0 C 213.566406 0 210.890625 -1.691406 209.765625 -5.078125 L 0 -552.296875 L 131.953125 -552.296875 L 217.375 -319.71875 L 351.859375 -671.5625 C 352.984375 -674.945312 355.519531 -676.640625 359.46875 -676.640625 L 474.5 -676.640625 C 478.445312 -676.640625 481.265625 -674.945312 482.953125 -671.5625 L 616.578125 -319.71875 Z M 702.859375 -552.296875 "/></g></g></g></g></g></g></g><g clip-path="url(#2858375cc4)"><g transform="matrix(1, 0, 0, 1, 0.000000000000000028, 431)"><g clip-path="url(#db825c4166)"><g clip-path="url(#4b2704753e)"><path fill="#74dab4" d="M -231.5 4.035156 L 988.496094 4.035156 C 992.839844 4.035156 996.363281 7.554688 996.363281 11.902344 L 996.363281 139.207031 C 996.363281 143.550781 992.839844 147.074219 988.496094 147.074219 L -231.5 147.074219 C -233.585938 147.074219 -235.585938 146.246094 -237.0625 144.769531 C -238.539062 143.292969 -239.367188 141.292969 -239.367188 139.207031 L -239.367188 11.902344 C -239.367188 7.554688 -235.84375 4.035156 -231.5 4.035156 Z M -231.5 4.035156 " fill-opacity="1" fill-rule="nonzero"/></g><g fill="#153466" fill-opacity="1"><g transform="translate(17.280305, 133.11795)"><g/></g></g><g fill="#153466" fill-opacity="1"><g transform="translate(45.898164, 133.11795)"><g/></g></g><g fill="#153466" fill-opacity="1"><g transform="translate(74.516022, 133.11795)"><g/></g></g><g fill="#153466" fill-opacity="1"><g transform="translate(103.133881, 133.11795)"><g/></g></g><g fill="#153466" fill-opacity="1"><g transform="translate(131.763506, 133.11795)"><g><path d="M 44.703125 -54.078125 C 49.816406 -51.722656 53.734375 -48.289062 56.453125 -43.78125 C 59.171875 -39.28125 60.53125 -34.144531 60.53125 -28.375 C 60.53125 -22.289062 59.085938 -17.132812 56.203125 -12.90625 C 53.328125 -8.6875 49.59375 -5.476562 45 -3.28125 C 40.414062 -1.09375 35.523438 0 30.328125 0 C 30.328125 0 30.285156 0 30.203125 0 L 30.203125 -17.53125 C 30.285156 -17.53125 30.328125 -17.53125 30.328125 -17.53125 C 33.578125 -17.53125 36.414062 -18.523438 38.84375 -20.515625 C 41.28125 -22.503906 42.5 -25.125 42.5 -28.375 C 42.5 -30.8125 41.867188 -32.878906 40.609375 -34.578125 C 39.359375 -36.285156 37.796875 -37.628906 35.921875 -38.609375 C 34.054688 -39.585938 32.191406 -40.113281 30.328125 -40.1875 C 29.921875 -40.1875 28.296875 -40.328125 25.453125 -40.609375 C 22.609375 -40.898438 19.398438 -41.859375 15.828125 -43.484375 C 10.796875 -45.835938 6.898438 -49.101562 4.140625 -53.28125 C 1.378906 -57.46875 0 -62.398438 0 -68.078125 C 0 -74.171875 1.4375 -79.410156 4.3125 -83.796875 C 7.195312 -88.179688 10.953125 -91.550781 15.578125 -93.90625 C 20.210938 -96.257812 25.128906 -97.4375 30.328125 -97.4375 C 35.929688 -97.4375 40.960938 -96.28125 45.421875 -93.96875 C 49.890625 -91.65625 53.441406 -88.40625 56.078125 -84.21875 C 58.722656 -80.039062 60.085938 -75.191406 60.171875 -69.671875 C 60.253906 -69.503906 60.148438 -69.296875 59.859375 -69.046875 C 59.578125 -68.804688 59.234375 -68.6875 58.828125 -68.6875 L 43.609375 -68.6875 C 43.273438 -68.6875 42.96875 -68.804688 42.6875 -69.046875 C 42.40625 -69.296875 42.265625 -69.503906 42.265625 -69.671875 C 42.179688 -73.160156 40.960938 -75.738281 38.609375 -77.40625 C 36.253906 -79.070312 33.492188 -79.90625 30.328125 -79.90625 C 26.992188 -79.90625 24.128906 -78.910156 21.734375 -76.921875 C 19.335938 -74.929688 18.140625 -71.984375 18.140625 -68.078125 C 18.140625 -64.585938 19.398438 -61.925781 21.921875 -60.09375 C 24.441406 -58.269531 27.242188 -57.359375 30.328125 -57.359375 C 30.566406 -57.359375 31.375 -57.316406 32.75 -57.234375 C 34.132812 -57.160156 35.90625 -56.898438 38.0625 -56.453125 C 40.21875 -56.003906 42.429688 -55.210938 44.703125 -54.078125 Z M 44.703125 -54.078125 "/></g></g></g><g fill="#153466" fill-opacity="1"><g transform="translate(193.505349, 133.11795)"><g><path d="M 55.296875 -78.796875 L 77.953125 -78.796875 L 54.4375 -45.796875 L 54.4375 -1.09375 C 54.4375 -0.363281 53.992188 0 53.109375 0 L 37.140625 0 C 36.253906 0 35.8125 -0.363281 35.8125 -1.09375 L 35.8125 -45.796875 C 29.957031 -54.160156 24.046875 -62.484375 18.078125 -70.765625 C 12.117188 -79.046875 6.175781 -87.328125 0.25 -95.609375 C -0.0820312 -96.015625 -0.128906 -96.421875 0.109375 -96.828125 C 0.359375 -97.234375 0.8125 -97.4375 1.46875 -97.4375 L 20.703125 -97.4375 C 21.273438 -97.4375 21.679688 -97.316406 21.921875 -97.078125 L 45.0625 -64.546875 Z M 55.296875 -78.796875 "/></g></g></g><g fill="#153466" fill-opacity="1"><g transform="translate(273.514116, 133.11795)"><g><path d="M 80.625 -97.4375 C 81.519531 -97.4375 81.96875 -97.070312 81.96875 -96.34375 L 81.96875 -1.09375 C 81.96875 -0.363281 81.519531 0 80.625 0 L 64.546875 0 C 64.472656 0 64.289062 -0.0390625 64 -0.125 C 63.71875 -0.207031 63.535156 -0.285156 63.453125 -0.359375 L 18.640625 -64.546875 L 18.640625 -23.390625 L 0 -23.390625 L 0 -96.34375 C 0 -97.070312 0.40625 -97.4375 1.21875 -97.4375 L 17.421875 -97.4375 C 17.578125 -97.4375 17.773438 -97.414062 18.015625 -97.375 C 18.265625 -97.332031 18.429688 -97.234375 18.515625 -97.078125 L 63.453125 -32.890625 L 63.453125 -96.34375 C 63.453125 -97.070312 63.941406 -97.4375 64.921875 -97.4375 Z M 80.625 -97.4375 "/></g></g></g><g fill="#153466" fill-opacity="1"><g transform="translate(357.785145, 133.11795)"><g><path d="M 76.484375 -1.46875 C 76.648438 -1.132812 76.609375 -0.804688 76.359375 -0.484375 C 76.117188 -0.160156 75.796875 0 75.390625 0 L 58.578125 0 C 58.015625 0 57.648438 -0.242188 57.484375 -0.734375 L 38.25 -55.046875 L 19.25 -0.734375 C 19.164062 -0.242188 18.757812 0 18.03125 0 L 1.34375 0 C 0.769531 0 0.378906 -0.160156 0.171875 -0.484375 C -0.0234375 -0.804688 -0.0390625 -1.132812 0.125 -1.46875 L 37.03125 -96.703125 C 37.1875 -97.191406 37.585938 -97.4375 38.234375 -97.4375 C 38.890625 -97.4375 39.300781 -97.191406 39.46875 -96.703125 Z M 76.484375 -1.46875 "/></g></g></g><g fill="#153466" fill-opacity="1"><g transform="translate(436.332525, 133.11795)"><g><path d="M 32.765625 -97.4375 C 33.578125 -97.4375 35.203125 -97.332031 37.640625 -97.125 C 40.078125 -96.925781 42.859375 -96.359375 45.984375 -95.421875 C 49.109375 -94.492188 52.171875 -92.992188 55.171875 -90.921875 C 58.179688 -88.847656 60.679688 -85.984375 62.671875 -82.328125 C 64.660156 -78.679688 65.65625 -73.972656 65.65625 -68.203125 C 65.65625 -63.410156 64.921875 -59.367188 63.453125 -56.078125 C 61.992188 -52.796875 60.066406 -50.097656 57.671875 -47.984375 C 55.273438 -45.878906 52.738281 -44.21875 50.0625 -43 C 47.382812 -41.78125 44.804688 -40.90625 42.328125 -40.375 C 39.847656 -39.84375 37.734375 -39.515625 35.984375 -39.390625 C 34.242188 -39.273438 33.171875 -39.21875 32.765625 -39.21875 L 18.265625 -39.21875 L 18.265625 -1.09375 C 18.265625 -0.363281 17.859375 0 17.046875 0 L 1.21875 0 C 0.40625 0 0 -0.363281 0 -1.09375 L 0 -57.25 L 32.765625 -57.25 C 33.410156 -57.25 34.484375 -57.328125 35.984375 -57.484375 C 37.492188 -57.648438 39.117188 -58.054688 40.859375 -58.703125 C 42.609375 -59.359375 44.09375 -60.4375 45.3125 -61.9375 C 46.53125 -63.4375 47.140625 -65.523438 47.140625 -68.203125 C 47.140625 -70.878906 46.507812 -72.988281 45.25 -74.53125 C 43.988281 -76.082031 42.484375 -77.203125 40.734375 -77.890625 C 38.992188 -78.578125 37.367188 -79.019531 35.859375 -79.21875 C 34.359375 -79.425781 33.328125 -79.53125 32.765625 -79.53125 L 0 -79.53125 L 0 -96.34375 C 0 -97.070312 0.40625 -97.4375 1.21875 -97.4375 Z M 32.765625 -97.4375 "/></g></g></g><g fill="#153466" fill-opacity="1"><g transform="translate(503.432665, 133.11795)"><g><path d="M 20.09375 -62.109375 L 38.609375 -62.109375 L 38.609375 -1.09375 C 38.609375 -0.363281 38.117188 0 37.140625 0 L 21.4375 0 C 20.539062 0 20.09375 -0.363281 20.09375 -1.09375 Z M 1.34375 -80.75 C 0.445312 -80.75 0 -81.113281 0 -81.84375 L 0 -96.34375 C 0 -97.070312 0.445312 -97.4375 1.34375 -97.4375 L 57.25 -97.4375 C 58.132812 -97.4375 58.578125 -97.070312 58.578125 -96.34375 L 58.578125 -81.84375 C 58.578125 -81.113281 58.132812 -80.75 57.25 -80.75 Z M 1.34375 -80.75 "/></g></g></g><g fill="#153466" fill-opacity="1"><g transform="translate(563.104279, 133.11795)"><g><path d="M 39.703125 -16.6875 C 40.597656 -16.6875 41.046875 -16.320312 41.046875 -15.59375 L 41.046875 -1.09375 C 41.046875 -0.363281 40.597656 0 39.703125 0 L 1.34375 0 C 0.445312 0 0 -0.363281 0 -1.09375 L 0 -15.59375 C 0 -16.320312 0.445312 -16.6875 1.34375 -16.6875 L 11.328125 -16.6875 L 11.328125 -97.4375 L 29.96875 -97.4375 L 29.96875 -16.6875 Z M 39.703125 -16.6875 "/></g></g></g><g fill="#153466" fill-opacity="1"><g transform="translate(604.387218, 133.11795)"><g><path d="M 55.65625 -17.90625 L 74.296875 -17.90625 L 74.296875 -1.09375 C 74.296875 -0.363281 73.847656 0 72.953125 0 L 57.125 0 C 52.25 0 47.171875 -0.363281 41.890625 -1.09375 C 36.617188 -1.820312 31.503906 -3.179688 26.546875 -5.171875 C 21.597656 -7.160156 17.113281 -9.960938 13.09375 -13.578125 C 9.070312 -17.191406 5.882812 -21.859375 3.53125 -27.578125 C 1.175781 -33.304688 0 -40.351562 0 -48.71875 C 0 -57.320312 1.195312 -64.546875 3.59375 -70.390625 C 5.988281 -76.242188 9.195312 -80.957031 13.21875 -84.53125 C 17.238281 -88.101562 21.742188 -90.820312 26.734375 -92.6875 C 31.722656 -94.550781 36.835938 -95.804688 42.078125 -96.453125 C 47.316406 -97.109375 52.332031 -97.4375 57.125 -97.4375 L 72.953125 -97.4375 C 73.847656 -97.4375 74.296875 -97.070312 74.296875 -96.34375 L 74.296875 -58.09375 L 55.65625 -58.09375 L 55.65625 -79.65625 C 48.59375 -80.0625 42.28125 -79.269531 36.71875 -77.28125 C 31.15625 -75.289062 26.769531 -71.960938 23.5625 -67.296875 C 20.351562 -62.628906 18.75 -56.4375 18.75 -48.71875 C 18.75 -42.707031 19.625 -37.753906 21.375 -33.859375 C 23.125 -29.960938 25.4375 -26.914062 28.3125 -24.71875 C 31.195312 -22.53125 34.300781 -20.925781 37.625 -19.90625 C 40.957031 -18.894531 44.207031 -18.285156 47.375 -18.078125 C 50.539062 -17.878906 53.300781 -17.820312 55.65625 -17.90625 Z M 55.65625 -17.90625 "/></g></g></g><g fill="#153466" fill-opacity="1"><g transform="translate(680.644157, 133.11795)"><g/></g></g><g fill="#153466" fill-opacity="1"><g transform="translate(709.262016, 133.11795)"><g/></g></g><g fill="#153466" fill-opacity="1"><g transform="translate(737.879875, 133.11795)"><g/></g></g><g fill="#153466" fill-opacity="1"><g transform="translate(766.497733, 133.11795)"><g/></g></g><g fill="#153466" fill-opacity="1"><g transform="translate(795.115592, 133.11795)"><g/></g></g></g></g></g></svg>